Coordinates
version=1
nRows=18
nColumns=63
inDegrees=yes

Units are S.I. units (second, meters, Newtons, ...)
If the header above contains a line with 'inDegrees', this indicates whether rotational values are in degrees (yes) or radians (no).

endheader
time	pelvis_tilt	pelvis_list	pelvis_rotation	pelvis_tx	pelvis_ty	pelvis_tz	hip_flexion_r	hip_adduction_r	hip_rotation_r	knee_angle_r	knee_angle_r_beta	ankle_angle_r	subtalar_angle_r	mtp_angle_r	hip_flexion_l	hip_adduction_l	hip_rotation_l	knee_angle_l	knee_angle_l_beta	ankle_angle_l	subtalar_angle_l	mtp_angle_l	L5_S1_Flex_Ext	L5_S1_Lat_Bending	L5_S1_axial_rotation	L4_L5_Flex_Ext	L4_L5_Lat_Bending	L4_L5_axial_rotation	L3_L4_Flex_Ext	L3_L4_Lat_Bending	L3_L4_axial_rotation	L2_L3_Flex_Ext	L2_L3_Lat_Bending	L2_L3_axial_rotation	L1_L2_Flex_Ext	L1_L2_Lat_Bending	L1_L2_axial_rotation	L1_T12_Flex_Ext	L1_T12_Lat_Bending	L1_T12_axial_rotation	Abs_r3	Abs_r2	Abs_r1	Abs_t1	Abs_t2	neck_flexion	neck_bending	neck_rotation	arm_flex_r	arm_add_r	arm_rot_r	elbow_flex_r	pro_sup_r	wrist_flex_r	wrist_dev_r	arm_flex_l	arm_add_l	arm_rot_l	elbow_flex_l	pro_sup_l	wrist_flex_l	wrist_dev_l
4.016667	2.908474	-0.940389	94.616463	0.130602	0.701392	0.707461	-4.807519	0.220193	4.647030	1.910763	0.033349	28.392632	-1.129048	0.000000	-2.701516	-1.322330	13.246938	1.060065	0.018502	28.420375	-9.131828	0.000000	0.049918	0.164152	-0.873009	0.092703	0.218323	-0.927572	0.082011	0.399120	-0.927572	0.057052	0.399120	-0.763883	0.046354	0.334739	-0.709320	0.028523	0.254272	-0.654757	0.356562	1.856923	-4.855413	0.000000	0.000000	24.017133	-1.502999	3.397851	15.048309	-8.411788	76.576382	42.399052	13.575450	-8.634542	21.981256	10.400934	-10.271277	64.014625	44.259102	89.170126	-10.246319	-6.458785
4.033333	2.914569	-1.058463	94.483555	0.130740	0.701388	0.707733	-4.770142	0.222920	6.437844	1.675883	0.029250	27.878455	-3.312339	0.000000	-2.578734	-1.314181	13.210911	1.053281	0.018383	28.321585	-9.259617	0.000000	0.055589	0.166112	-0.860679	0.103235	0.220929	-0.914472	0.091328	0.403884	-0.914472	0.063533	0.403884	-0.753094	0.051620	0.338735	-0.699302	0.031764	0.257307	-0.645509	0.397070	1.879091	-4.786840	0.000000	0.000000	24.375416	-1.558761	3.342769	15.626580	-8.463810	78.233294	42.229311	13.244460	-8.066349	21.780572	10.639283	-10.181803	64.794377	43.911986	89.184763	-10.939988	-6.597388
4.050000	2.896909	-1.154759	94.284030	0.131011	0.701317	0.708123	-4.750971	0.221930	8.418604	1.446962	0.025254	27.337212	-5.681792	0.000000	-2.482242	-1.278745	13.043053	1.052656	0.018372	28.261610	-9.286483	0.000000	0.055359	0.165208	-0.820614	0.102807	0.219726	-0.871902	0.090949	0.401686	-0.871902	0.063270	0.401686	-0.718037	0.051406	0.336892	-0.666749	0.031632	0.255907	-0.615460	0.395423	1.868863	-4.564009	0.000000	0.000000	24.629999	-1.698402	3.153759	16.123823	-8.527130	79.568463	42.088681	13.232542	-7.436204	21.605156	10.893873	-10.117716	65.445658	43.671273	89.203043	-11.371268	-6.537171
4.066667	2.868453	-1.248707	94.066643	0.131301	0.701153	0.708685	-4.675396	0.196439	9.839163	1.348483	0.023535	26.951457	-7.330186	0.000000	-2.408676	-1.216592	13.359614	0.997039	0.017402	28.077313	-9.972728	0.000000	0.052011	0.163675	-0.761635	0.096589	0.217688	-0.809237	0.085449	0.397959	-0.809237	0.059443	0.397959	-0.666431	0.048297	0.333766	-0.618829	0.029719	0.253533	-0.571226	0.371508	1.851525	-4.235987	0.000000	0.000000	24.773826	-1.944527	2.834903	16.545706	-8.628272	80.601059	42.013874	13.274928	-6.883424	21.484439	11.213063	-10.047563	66.158502	43.445273	89.217728	-11.771625	-6.513858
4.083333	2.823587	-1.336898	93.833453	0.131644	0.700916	0.709484	-4.540170	0.138909	10.641983	1.384060	0.024156	26.742915	-8.181866	0.000000	-2.296209	-1.142846	13.199671	1.024658	0.017884	28.059128	-10.054470	0.000000	0.043145	0.160063	-0.681052	0.080124	0.212884	-0.723618	0.070882	0.389178	-0.723618	0.049310	0.389178	-0.595921	0.040064	0.326401	-0.553355	0.024653	0.247938	-0.510789	0.308178	1.810670	-3.787809	0.000000	0.000000	24.819703	-2.302329	2.326644	16.869824	-8.749141	81.232676	41.987985	13.572544	-6.340905	21.405960	11.640346	-9.982382	67.022048	43.241106	89.231982	-12.176965	-6.474052
4.100000	2.772953	-1.435778	93.605824	0.132015	0.700595	0.710506	-4.327144	0.064360	10.888583	1.552054	0.027088	26.703882	-8.354583	0.000000	-2.116393	-1.073248	12.465396	1.153209	0.020127	28.241694	-9.377734	0.000000	0.031420	0.155947	-0.590221	0.058349	0.207410	-0.627110	0.051619	0.379170	-0.627110	0.035909	0.379170	-0.516444	0.029176	0.318007	-0.479555	0.017953	0.241562	-0.442666	0.224427	1.764106	-3.282635	0.000000	0.000000	24.769431	-2.736976	1.726700	17.089105	-8.885956	81.445711	42.042751	13.991621	-6.004914	21.430530	12.119008	-9.910697	67.915647	43.024264	89.244986	-12.558322	-6.558608
4.116667	2.724537	-1.541492	93.388893	0.132420	0.700201	0.711721	-4.040728	-0.020041	10.562021	1.849722	0.032284	26.841158	-7.833509	0.000000	-1.893329	-1.017439	11.581281	1.340587	0.023398	28.481449	-8.520959	0.000000	0.016490	0.151724	-0.493313	0.030624	0.201793	-0.524145	0.027092	0.368902	-0.524145	0.018847	0.368902	-0.431649	0.015313	0.309396	-0.400817	0.009423	0.235021	-0.369985	0.117789	1.716333	-2.743661	0.000000	0.000000	24.627418	-3.252980	1.025648	17.241718	-9.038694	81.376011	42.161743	14.332287	-5.823962	21.452147	12.636441	-9.849119	68.815269	42.835874	89.255144	-12.951778	-6.688637
4.133333	2.678091	-1.661824	93.202613	0.132842	0.699736	0.713089	-3.677012	-0.114939	9.639950	2.274467	0.039697	27.158228	-6.612647	0.000000	-1.610208	-0.976799	10.363185	1.606932	0.028046	28.846776	-7.191488	0.000000	-0.000350	0.147559	-0.402168	-0.000651	0.196253	-0.427303	-0.000576	0.358774	-0.427303	-0.000400	0.358774	-0.351897	-0.000325	0.300902	-0.326761	-0.000200	0.228569	-0.301626	-0.002503	1.669215	-2.236736	0.000000	0.000000	24.423372	-3.797475	0.341452	17.351853	-9.192030	81.084576	42.328303	14.655375	-5.750952	21.484056	13.114560	-9.819779	69.509286	42.735505	89.262534	-13.233891	-6.811707
4.150000	2.635863	-1.804462	93.045193	0.133281	0.699201	0.714554	-3.230530	-0.218758	8.115464	2.824852	0.049303	27.660352	-4.666582	0.000000	-1.263931	-0.954657	8.821438	1.948861	0.034014	29.332112	-5.396024	0.000000	-0.017749	0.144005	-0.320911	-0.032962	0.191526	-0.340968	-0.029160	0.350133	-0.340968	-0.020286	0.350133	-0.280797	-0.016482	0.293654	-0.260740	-0.010142	0.223063	-0.240683	-0.126781	1.629008	-1.784810	0.000000	0.000000	24.205992	-4.317678	-0.222898	17.420551	-9.338056	80.565763	42.543013	14.978873	-5.814724	21.581166	13.490609	-9.830946	69.826967	42.762568	89.265262	-13.271218	-6.891988
4.166667	2.595172	-1.977996	92.940650	0.133712	0.698598	0.716025	-2.715129	-0.327719	6.168419	3.466934	0.060509	28.295575	-2.247312	0.000000	-0.864593	-0.947288	7.220915	2.331271	0.040688	29.845031	-3.453528	0.000000	-0.033211	0.140268	-0.255173	-0.061676	0.186557	-0.271122	-0.054563	0.341048	-0.271122	-0.037957	0.341048	-0.223277	-0.030840	0.286035	-0.207328	-0.018977	0.217276	-0.191380	-0.237224	1.586744	-1.419197	0.000000	0.000000	24.011193	-4.780316	-0.631652	17.452279	-9.472972	79.877352	42.807479	15.121416	-6.027970	21.722731	13.716633	-9.893314	69.684226	42.947358	89.263317	-13.023773	-6.903745
4.183333	2.553429	-2.175837	92.884724	0.134154	0.697969	0.717442	-2.162119	-0.434471	3.950306	4.150550	0.072441	29.009571	0.478005	0.000000	-0.428116	-0.950908	5.564831	2.742068	0.047858	30.382566	-1.368175	0.000000	-0.047364	0.135687	-0.205633	-0.087959	0.180464	-0.218485	-0.077814	0.329909	-0.218485	-0.054132	0.329909	-0.179928	-0.043982	0.276693	-0.167076	-0.027064	0.210179	-0.154224	-0.338315	1.534918	-1.143666	0.000000	0.000000	23.874280	-5.138708	-0.832820	17.488666	-9.594761	79.172692	43.098691	15.255004	-6.290303	21.804450	13.808534	-10.023074	69.158989	43.298344	89.259424	-12.563314	-6.808070
4.200000	2.501895	-2.401725	92.847407	0.134637	0.697337	0.718750	-1.564677	-0.557604	1.326253	4.884405	0.085249	29.831265	3.744852	0.000000	0.041993	-0.955216	3.715505	3.175545	0.055424	30.978478	1.014120	0.000000	-0.059103	0.128723	-0.161460	-0.109761	0.171202	-0.171551	-0.097101	0.312978	-0.171551	-0.067549	0.312978	-0.141278	-0.054883	0.262493	-0.131186	-0.033772	0.199392	-0.121095	-0.422169	1.456144	-0.897993	0.000000	0.000000	23.814929	-5.398756	-0.887272	17.451876	-9.692488	78.254607	43.412970	15.517043	-6.629724	21.932058	13.757852	-10.205701	68.220390	43.795299	89.258652	-11.729090	-6.561887
4.216667	2.447591	-2.661648	92.862972	0.135108	0.696719	0.719886	-0.964752	-0.670866	-1.038725	5.567467	0.097171	30.559713	6.607135	0.000000	0.534430	-0.959712	2.073234	3.585001	0.062570	31.515947	3.187800	0.000000	-0.065024	0.120171	-0.127339	-0.120757	0.159828	-0.135298	-0.106829	0.292185	-0.135298	-0.074316	0.292185	-0.111422	-0.060382	0.245053	-0.103463	-0.037155	0.186145	-0.095504	-0.464463	1.359403	-0.708222	0.000000	0.000000	23.829493	-5.552849	-0.784655	17.365821	-9.754706	77.244971	43.695889	15.900191	-6.890713	22.139343	13.630396	-10.424974	67.177256	44.334131	89.260687	-10.877069	-6.380661
4.233333	2.399591	-2.934522	92.914658	0.135560	0.696175	0.720873	-0.375034	-0.773546	-3.373330	6.205671	0.108309	31.256212	9.415154	0.000000	1.034721	-0.974996	0.401955	3.982291	0.069504	32.058873	5.439814	0.000000	-0.068131	0.111097	-0.093432	-0.126526	0.147759	-0.099271	-0.111933	0.270120	-0.099271	-0.077867	0.270120	-0.081753	-0.063267	0.226548	-0.075913	-0.038930	0.172089	-0.070074	-0.486654	1.256748	-0.519640	0.000000	0.000000	23.931252	-5.629340	-0.617947	17.234346	-9.811452	76.200435	43.976133	16.308557	-7.158144	22.313742	13.556540	-10.639891	66.408763	44.793867	89.264446	-10.306038	-6.397239
4.250000	2.361203	-3.229202	92.999168	0.135967	0.695700	0.721672	0.199715	-0.865468	-5.586577	6.764376	0.118061	31.887299	12.041885	0.000000	1.545629	-0.999870	-1.231760	4.354257	0.075996	32.587215	7.669011	0.000000	-0.065313	0.101939	-0.056149	-0.121293	0.135579	-0.059659	-0.107303	0.247854	-0.059659	-0.074646	0.247854	-0.049131	-0.060650	0.207874	-0.045621	-0.037320	0.157903	-0.042112	-0.466525	1.153152	-0.312286	0.000000	0.000000	24.121086	-5.649668	-0.439762	16.992513	-9.863668	74.990151	44.257101	16.847113	-7.482344	22.506824	13.545377	-10.810253	65.992358	45.111584	89.271238	-10.062587	-6.634452
4.266667	2.333410	-3.530383	93.087984	0.136372	0.695315	0.722261	0.715628	-0.933902	-7.356950	7.172852	0.125190	32.363178	14.113908	0.000000	2.037209	-1.034902	-2.778480	4.679090	0.081666	33.068862	9.771226	0.000000	-0.057327	0.093270	-0.022003	-0.106461	0.124050	-0.023379	-0.094182	0.226777	-0.023379	-0.065519	0.226777	-0.019253	-0.053234	0.190197	-0.017878	-0.032756	0.144476	-0.016503	-0.409479	1.055092	-0.122376	0.000000	0.000000	24.403178	-5.597497	-0.218894	16.769203	-9.891079	74.003462	44.470052	17.290117	-7.719686	22.641437	13.543534	-10.968109	65.753911	45.366235	89.284458	-9.940532	-6.890463
4.283333	2.317684	-3.829409	93.197544	0.136746	0.695007	0.722603	1.172988	-0.979231	-8.773926	7.464965	0.130288	32.725980	15.709373	0.000000	2.501033	-1.081798	-4.165816	4.962320	0.086609	33.496469	11.697156	0.000000	-0.044307	0.085517	0.004971	-0.082282	0.113737	0.005281	-0.072791	0.207926	0.005281	-0.050638	0.207926	0.004349	-0.041143	0.174386	0.004039	-0.025317	0.132466	0.003728	-0.316478	0.967384	0.027645	0.000000	0.000000	24.780981	-5.451863	0.071979	16.476896	-9.912009	73.059047	44.661906	17.612371	-7.944904	22.646680	13.516704	-11.119176	65.628892	45.586620	89.296698	-9.994170	-7.169413
4.300000	2.318296	-4.115133	93.299877	0.137111	0.694778	0.722729	1.551395	-0.996165	-9.915458	7.615055	0.132908	32.982523	16.994817	0.000000	2.910461	-1.143586	-5.255201	5.176076	0.090340	33.806681	13.230190	0.000000	-0.027097	0.079702	0.030679	-0.050321	0.106004	0.032597	-0.044517	0.193787	0.032597	-0.030969	0.193787	0.026844	-0.025162	0.162528	0.024927	-0.015483	0.123458	0.023009	-0.193550	0.901604	0.170629	0.000000	0.000000	25.240211	-5.310163	0.337413	16.182546	-9.926130	72.307878	44.834764	17.373726	-8.292216	22.705018	13.510580	-11.260981	65.681360	45.763941	89.307320	-10.167564	-7.487765
